<svg xmlns="http://www.w3.org/2000/svg" width="1747" height="521" viewBox="0 0 1747 521">
  <defs>
    <style>
      .cls-1 {
        fill: #fff;
      }

      .cls-1, .cls-2 {
        fill-rule: evenodd;
      }

      .cls-2 {
        fill: #25dec2;
      }
    </style>
  </defs>
  <path id="Epic" class="cls-1" d="M163.272,318.607q-15.356,0-25.686-9.448a30.333,30.333,0,0,1-10.333-23.324,30.668,30.668,0,0,1,10.333-23.619q10.034-8.559,27.457-9.152h92.115V163.016H160.024q-15.942,0-26.571-9.743a29.386,29.386,0,0,1-10.924-23.619q0-13.875,9.743-22.734,9.445-8.559,26.276-9.447h98.61V6.539H129.615Q88.872,6.539,62,22.187a104.989,104.989,0,0,0-29.229,24.8A110.047,110.047,0,0,0,13.29,81.235,117.7,117.7,0,0,0,6.5,120.206q0,51.669,42.219,87.686Q-0.293,246.276-.291,300.3A102.379,102.379,0,0,0,7.09,338.388a108.956,108.956,0,0,0,20.962,34.838q31.588,34.84,85.029,36.315H257.158V318.607H163.272Zm250.954-28.343V276.978A128.4,128.4,0,0,1,416,253.359a52.111,52.111,0,0,1,5.9-17.419q6.2-11.217,18.6-18.6a53.784,53.784,0,0,1,27.162-7.086,54.571,54.571,0,0,1,27.162,6.791,51.987,51.987,0,0,1,18.3,19.19q6.49,12.109,6.5,28.343,0,23.327-15.057,38.086-15.652,14.766-40.448,14.762-14.172,0-31.886-6.79V411.9a127.619,127.619,0,0,0,30.41,3.838,160.8,160.8,0,0,0,61.114-11.515,146.42,146.42,0,0,0,49.6-32.476,143.2,143.2,0,0,0,33.066-48.419,157.627,157.627,0,0,0,11.22-59.639q0-41.628-19.782-76.467a144.949,144.949,0,0,0-54.619-54.914,150.96,150.96,0,0,0-76.172-20.076,164.51,164.51,0,0,0-34.543,3.542A148.848,148.848,0,0,0,400.94,126.7,213.107,213.107,0,0,0,372.3,144.416a136.076,136.076,0,0,0-24.21,24.5,128.5,128.5,0,0,0-18.6,29.524A135.414,135.414,0,0,0,319.158,232.4a223.4,223.4,0,0,0-3.542,41.629v246.23h98.61V290.264ZM665.77,81.235a52.818,52.818,0,0,0,19.485,18.9A52.693,52.693,0,0,0,764.38,54.663,56.169,56.169,0,0,0,757.589,27.8,54.4,54.4,0,0,0,738.1,8.31a52.969,52.969,0,0,0-53.438-.3,56.657,56.657,0,0,0-19.191,20.076,56,56,0,0,0-7.085,27.752,47.021,47.021,0,0,0,7.381,25.391h0Zm95.067,35.724H661.931V409.541h98.906V116.958Zm215.229,196.63a47.162,47.162,0,0,1-19.485,3.838,53.231,53.231,0,0,1-26.867-7.086,51.46,51.46,0,0,1-19.486-19.486,50.574,50.574,0,0,1-7.381-26.866,53.245,53.245,0,0,1,7.086-26.867,49.4,49.4,0,0,1,19.485-19.191,53.243,53.243,0,0,1,26.867-7.085,49.235,49.235,0,0,1,19.486,3.542q8.561,3.543,18.01,11.81l48.419-86.8q-39.27-27.16-85.324-27.162a151.487,151.487,0,0,0-76.467,20.076,146.382,146.382,0,0,0-54.915,55.21q-20.372,34.84-20.371,76.467a153.748,153.748,0,0,0,74.4,131.086,143.459,143.459,0,0,0,74.7,20.372q49,0,87.681-27.162l-48.119-86.8a60.469,60.469,0,0,1-17.715,12.105h0Z"/>
  <path id="RE" class="cls-2" d="M1638.53,98.34H1603.1a73.392,73.392,0,0,0-27.75,5.019,36.949,36.949,0,0,0-17.42,14.762,46.145,46.145,0,0,0-5.91,23.324q0,21.555,14.47,32.477,14.76,11.223,42.22,11.219h11.81V263.97h-13.58q-30.7,0-44.58,12.99-13.575,13.584-13.88,44.581v81.191H1441.01V320.36q0-34.833,10.63-57.867,10.635-22.731,36.02-41.924-23.325-19.776-33.36-41.038-10.335-22.143-10.33-50.486A140.483,140.483,0,0,1,1448.1,94.8a110.681,110.681,0,0,1,12.4-30.114,117.8,117.8,0,0,1,21.26-26.276,125.614,125.614,0,0,1,27.75-19.486,149.568,149.568,0,0,1,42.81-15.057q23.91-4.131,62.88-4.133h131.09v403H1638.53V98.34ZM1235.23,311.8q15.36,0,25.69-9.447a30.337,30.337,0,0,0,10.33-23.324,30.669,30.669,0,0,0-10.33-23.619q-10.035-8.56-27.46-9.153h-92.11V156.207h97.13q15.945,0,26.57-9.743a29.393,29.393,0,0,0,10.92-23.619q0-13.873-9.74-22.733-9.45-8.56-26.27-9.448h-98.61V-0.27h127.54q40.74,0,67.61,15.648a104.969,104.969,0,0,1,29.23,24.8,109.956,109.956,0,0,1,19.48,34.248A117.7,117.7,0,0,1,1392,113.4q0,51.67-42.22,87.687,49.02,38.384,49.01,92.41a102.221,102.221,0,0,1-7.38,38.085,108.968,108.968,0,0,1-20.96,34.839q-31.59,34.84-85.03,36.314H1141.35V311.8h93.88Z"/>
</svg>
