<svg xmlns="http://www.w3.org/2000/svg" version="1.1" xmlns:xlink="http://www.w3.org/1999/xlink" xmlns:svgjs="http://svgjs.dev/svgjs" width="1000" height="1000"><g clip-path="url(#SvgjsClipPath1345)"><rect width="1000" height="1000" fill="#212121"></rect><g transform="matrix(0.8333333333333334,0,0,0.8333333333333334,50,50)"><svg xmlns="http://www.w3.org/2000/svg" version="1.1" xmlns:xlink="http://www.w3.org/1999/xlink" xmlns:svgjs="http://svgjs.dev/svgjs" width="1080" height="1080"><svg xmlns="http://www.w3.org/2000/svg" width="1080" height="1080" viewBox="0 0 1080 1080">
  <defs>
    <style>
      .cls-1 {
        fill: #fff;
      }

      .cls-1, .cls-2 {
        fill-rule: evenodd;
      }

      .cls-2 {
        fill: #25dec2;
      }
    </style>
  <clipPath id="SvgjsClipPath1345"><rect width="1000" height="1000" x="0" y="0" rx="350" ry="350"></rect></clipPath></defs>
  <path id="E_copia" data-name="E copia" class="cls-1" d="M206.931,663.535q-17.151,0-28.692-10.553A33.886,33.886,0,0,1,166.7,626.928a34.257,34.257,0,0,1,11.543-26.383q11.208-9.561,30.671-10.224h102.9V489.735H203.3q-17.808,0-29.681-10.883-12.205-10.219-12.2-26.384,0-15.5,10.883-25.394,10.551-9.561,29.351-10.553H311.805V314.945H169.335q-45.512,0-75.523,17.479a117.285,117.285,0,0,0-32.649,27.7A122.939,122.939,0,0,0,39.4,398.382a131.471,131.471,0,0,0-7.585,43.533q0,57.715,47.16,97.948Q24.224,582.739,24.226,643.088a114.359,114.359,0,0,0,8.245,42.543,121.712,121.712,0,0,0,23.415,38.916q35.285,38.917,94.98,40.564H311.805V663.535H206.931Z"></path>
  <path id="RE_copia" data-name="RE copia" class="cls-2" d="M934.93,425.309H895.355a82,82,0,0,0-31,5.607q-12.863,5.611-19.458,16.489a51.6,51.6,0,0,0-6.6,26.054q0,24.078,16.16,36.277,16.494,12.537,47.16,12.532h13.192v88.055H899.642q-34.3,0-49.8,14.51-15.167,15.174-15.5,49.8v90.693H714.3V673.313q0-38.91,11.873-64.639,11.872-25.392,40.234-46.831Q740.359,539.753,729.14,516,717.6,491.269,717.6,459.608a157.259,157.259,0,0,1,4.617-38.256,123.784,123.784,0,0,1,13.851-33.639,131.616,131.616,0,0,1,23.745-29.351,140.5,140.5,0,0,1,31-21.767,167.027,167.027,0,0,1,47.82-16.819q26.714-4.614,70.245-4.617H1055.3V765.325H934.93V425.309Zm-450.5,238.44q17.152,0,28.692-10.553a33.883,33.883,0,0,0,11.543-26.054,34.254,34.254,0,0,0-11.543-26.383q-11.208-9.562-30.671-10.224H379.56V489.949h108.5q17.808,0,29.681-10.884,12.205-10.218,12.2-26.383,0-15.5-10.883-25.394-10.551-9.561-29.351-10.553H379.56V315.159H522.03q45.512,0,75.523,17.479a117.266,117.266,0,0,1,32.649,27.7A122.9,122.9,0,0,1,651.968,398.6a131.454,131.454,0,0,1,7.586,43.533q0,57.715-47.161,97.948,54.749,42.876,54.746,103.225a114.365,114.365,0,0,1-8.245,42.543,121.712,121.712,0,0,1-23.415,38.915q-35.286,38.919-94.98,40.565H379.56V663.749H484.434Z"></path>
</svg></svg></g></g></svg>